<svg xmlns="http://www.w3.org/2000/svg" viewBox="0 0 58.7 58.7"><defs><style>.cls-1{fill:#edac00;}.cls-2{fill:#f6d57c;}.cls-3{fill:#fbedc7;}.cls-4{fill:#f6d376;}.cls-5{fill:#fbeabc;}.cls-6{fill:#f2c445;}.cls-7{fill:#f2c342;}.cls-8{fill:#f2c03a;}.cls-9{fill:#fbf5e0;}.cls-10{fill:#f6df9c;}.cls-11{fill:#fdf0cf;}.cls-12{fill:#fae2a6;}.cls-13{fill:#fae4ac;}.cls-14{fill:#fcf0cf;}.cls-15{fill:#f7e5ad;}.cls-16{fill:#f8db8f;}.cls-17{fill:#fbf4de;}.cls-18{fill:#fcf1d3;}.cls-19{fill:#f1bb2b;}.cls-20{fill:#f4cb5e;}.cls-21{fill:#f5d57b;}.cls-22{fill:#f8df9d;}.cls-23{fill:#ded100;}.cls-24{fill:#bb9a00;}.cls-25{fill:#bb9c00;}.cls-26{fill:#b89900;}.cls-27{fill:#b89a00;}.cls-28{fill:#b69700;}.cls-29{fill:#b89800;}.cls-30{fill:#b79500;}.cls-31{fill:#b79700;}.cls-32{fill:#b69500;}.cls-33{fill:#b29400;}.cls-34{fill:#b19300;}.cls-35{fill:#b09500;}.cls-36{fill:#b19700;}.cls-37{fill:#b09100;}.cls-38{fill:#af9100;}.cls-39{fill:#b39100;}.cls-40{fill:#b09400;}.cls-41{fill:#fff;}.cls-42{fill:#ffbf00;}.cls-43{fill:#7f8989;}.cls-44{fill:#9da3a3;}.cls-45{fill:#858d8d;}.cls-46{fill:#534b4b;}</style></defs><g id="Layer_2" data-name="Layer 2"><g id="Layer_1-2" data-name="Layer 1"><path class="cls-1" d="M0,30.07V28.83a1.75,1.75,0,0,0,0-.56V28a20.85,20.85,0,0,1,.19-2.36,28.41,28.41,0,0,1,.65-3.43,29.37,29.37,0,0,1,5-10.48A25.9,25.9,0,0,1,7.8,9.42c.3-.33.61-.65.93-1A29.43,29.43,0,0,1,25.25.26a22.57,22.57,0,0,1,3-.24h2.3a23.12,23.12,0,0,1,4,.39,29.54,29.54,0,0,1,4.44,1.15A28.6,28.6,0,0,1,43.35,3.5a29.61,29.61,0,0,1,4.38,2.89c.6.48,1.18,1,1.75,1.52a29.23,29.23,0,0,1,5.71,7.38,29.53,29.53,0,0,1,3.32,10.1,15.49,15.49,0,0,1,.17,2.25v.43a1.17,1.17,0,0,0,0,.32v1.92c0,.07,0,.14,0,.21v.57a19.2,19.2,0,0,1-.35,3.39,28.32,28.32,0,0,1-1.13,4.37,30.25,30.25,0,0,1-1.22,3,28.94,28.94,0,0,1-2.24,3.94,29.38,29.38,0,0,1-2.28,2.95,27.58,27.58,0,0,1-2,2.06A29.06,29.06,0,0,1,38,57.46a28.83,28.83,0,0,1-4.86,1,18,18,0,0,1-2.08.17h-.61a1.4,1.4,0,0,0-.41,0H28.75a1.45,1.45,0,0,0-.36,0h-.66a23.08,23.08,0,0,1-4.14-.51,28.72,28.72,0,0,1-6.37-2.06,29.68,29.68,0,0,1-6.85-4.33c-.58-.49-1.14-1-1.68-1.54a29.24,29.24,0,0,1-3.5-4.19,29.44,29.44,0,0,1-4.12-8.79A30.17,30.17,0,0,1,.2,32.85,20,20,0,0,1,0,30.8,3,3,0,0,0,0,30.07Z"/><path class="cls-2" d="M30.07,0H28.75s0,0,0,0h1.33s0,0,0,0Z"/><path class="cls-3" d="M.08,30.83c-.06,0,0-.12,0-.18s0-.1,0-.14v-.44a.3.3,0,0,1,.06.22A3.25,3.25,0,0,1,.08,30.83Z"/><path class="cls-4" d="M.07,28.27a1.35,1.35,0,0,1,0,.49.43.43,0,0,1,0,.07v-.32c.05-.07,0-.17,0-.24H0S.06,28.25.07,28.27Z"/><path class="cls-5" d="M30.07,0V0h.48V0Z"/><path class="cls-6" d="M30,58.7a.1.1,0,0,1,.09,0h.31s0,0,0,0a0,0,0,0,1,0,0Z"/><path class="cls-7" d="M28.39,58.66h.27a.1.1,0,0,1,.09,0h-.36s0,0,0,0S28.38,58.66,28.39,58.66Z"/><path class="cls-8" d="M58.7,28.39a.1.1,0,0,1,0-.09v-.23s0,0,0,0Z"/><path class="cls-9" d="M31.07,58.66v0h-.32s0,0,0,0h.33Z"/><path class="cls-10" d="M30.75,58.67v0h-.32v0Z"/><path class="cls-11" d="M28.19,0V0h.28s0,0,0,0h0A1.31,1.31,0,0,1,28.19,0Z"/><path class="cls-12" d="M28.47,0V0h.28V0Z"/><path class="cls-13" d="M0,28.27v.16a.09.09,0,0,1,0,.08v-.24Z"/><path class="cls-14" d="M58.7,31.11h0v-.24s0,0,0,0Z"/><path class="cls-15" d="M28,58.66h.24s0,0,0,0a0,0,0,0,1,0,0H28s0,0,0,0S27.94,58.66,28,58.66Z"/><path class="cls-16" d="M58.7,28.07h0v-.24s0,0,0,0Z"/><path class="cls-17" d="M28,58.66v0h-.24v0Z"/><path class="cls-18" d="M58.7,27.83h0v-.2h0Z"/><path class="cls-19" d="M58.66,30.51c0-.07,0-.14,0-.2v.2S58.68,30.53,58.66,30.51Z"/><path class="cls-20" d="M58.66,30.51h0v.2s0,0,0,0Z"/><path class="cls-21" d="M28.19,58.7v0h.2v0Z"/><path class="cls-22" d="M58.67,30.71h0v.16h0Z"/><path d="M36.71,19.48c.17-.21.35-.41.52-.61s.51-.56.76-.85a7.43,7.43,0,0,1,1.15-1c.68-.51,1.4-1,2.11-1.45S43,14.41,43.82,13.8c.54-.4,1.07-.8,1.57-1.25a10.44,10.44,0,0,0,1.38-1.44,5.33,5.33,0,0,0,.74-1.29.16.16,0,0,1,0-.07l0,0a1.17,1.17,0,0,1,.08.36c.14.74.28,1.47.4,2.21s.23,1.41.34,2.13c.08.52.15,1.05.22,1.58s.12,1,.18,1.53c.08.66.13,1.32.18,2,0,.22,0,.45,0,.67a29.67,29.67,0,0,1,0,3c0,.63-.06,1.26-.13,1.89a22.17,22.17,0,0,1-.87,4l-.39,1.28a4.71,4.71,0,0,1-.59,1.24c-.15.23-.3.45-.46.67a5.62,5.62,0,0,0-1,2.53c-.06.37-.1.74-.13,1.11a10.25,10.25,0,0,1-1,3.76,14.37,14.37,0,0,1-2,3A17.46,17.46,0,0,1,40.12,45a21.34,21.34,0,0,1-6.83,3.76l-.44.14a.1.1,0,0,0,0,.1c0,.07.07.14.09.2s0,.19-.12.19H25.76c-.23,0-.22,0-.15-.23s.1-.19.15-.29a.39.39,0,0,0-.16-.07,21.38,21.38,0,0,1-2.34-.91,21.61,21.61,0,0,1-4.53-2.82,17.68,17.68,0,0,1-3-3A12.75,12.75,0,0,1,14,38.87a9.77,9.77,0,0,1-.57-2.12,8.65,8.65,0,0,1-.1-.89,8.15,8.15,0,0,0-.41-2.19,5.13,5.13,0,0,0-.62-1.21l-.4-.57a5.35,5.35,0,0,1-.82-1.7c-.21-.72-.45-1.43-.64-2.16a19.43,19.43,0,0,1-.51-2.5c-.08-.56-.13-1.11-.16-1.67a28.4,28.4,0,0,1,0-3.06c0-.7.07-1.4.14-2.09,0-.48.08-1,.13-1.44s.15-1.17.23-1.76.13-1,.21-1.52.17-1.07.26-1.6.22-1.26.34-1.89l.12-.68s0-.07.05-.08l0,0a6,6,0,0,0,1.1,1.75A12.89,12.89,0,0,0,14,13.07c.78.63,1.61,1.21,2.44,1.77l2.5,1.66.5.36a8.44,8.44,0,0,1,1.65,1.51l.89,1c0,.05.07.1.13.12a2.73,2.73,0,0,1,.46.5,42.92,42.92,0,0,1,3,4.09c.54.83,1,1.69,1.5,2.57a24.05,24.05,0,0,1,1.5,3.55.56.56,0,0,1-.09.57c-.41.52-.8,1.07-1.21,1.59a.38.38,0,0,0-.06.47c.07.13.11.26.18.38.63,1.24,1.22,2.51,1.85,3.75a.62.62,0,0,0,.11.19c.07,0,.08-.09.1-.14.69-1.35,1.32-2.72,2-4.06a.53.53,0,0,0-.06-.65c-.41-.5-.78-1-1.18-1.54a.49.49,0,0,1-.07-.45,24.92,24.92,0,0,1,2-4.49,39.44,39.44,0,0,1,4-5.7c.17-.2.32-.4.49-.59S36.67,19.51,36.71,19.48Z"/><path class="cls-23" d="M36.63,19.56l-.18.23a43.08,43.08,0,0,0-3.28,4.44,27.52,27.52,0,0,0-2.24,4.18c-.28.65-.52,1.31-.74,2-.05.17-.05.17,0,.3l1.2,1.6a1.5,1.5,0,0,1,.23.33c-.06.11-.11.23-.16.34q-1,2.09-2.05,4.16a.4.4,0,0,1-.09.17c-.06,0-.07-.07-.09-.11-.69-1.42-1.39-2.84-2.08-4.25l-.12-.23a.15.15,0,0,1,0-.17,1.71,1.71,0,0,0,.11-.14l1.26-1.68a.44.44,0,0,1,.08-.11.19.19,0,0,0,0-.19c0-.05,0-.1,0-.15a23.19,23.19,0,0,0-1.2-3,31.85,31.85,0,0,0-2.64-4.42c-.78-1.1-1.6-2.16-2.47-3.19,0-.05-.1-.09-.11-.17l0,0s.06,0,.08-.05h0s.06,0,.08,0h0s.06,0,.08,0h0a3.18,3.18,0,0,1,.32-.16h0s.06,0,.08,0h0s.06,0,.08,0h0s.06,0,.08,0h0a3.92,3.92,0,0,0,.36-.16h0a2.36,2.36,0,0,0,.28-.12h0a1.19,1.19,0,0,0,.2-.08h0c.1-.05.22-.06.32-.12h0l.84-.28h0a16,16,0,0,1,2.16-.48,16.47,16.47,0,0,1,1.71-.16c.3,0,.61,0,.92,0s.66,0,1,.07a15.44,15.44,0,0,1,2.34.39c.33.08.65.18,1,.27h0s.09,0,.12,0h0s.09,0,.12,0h0s.09,0,.12,0h0c.21.09.43.16.64.24h0c.15.08.32.13.48.2h0s.06,0,.08,0h0a6.54,6.54,0,0,0,.6.28h0s.06,0,.08,0h0C36.37,19.42,36.56,19.41,36.63,19.56Z"/><path class="cls-24" d="M29.75,17.67h-.44a1.22,1.22,0,0,0-.38,0h-.15a3.07,3.07,0,0,0-.68,0h0a8.52,8.52,0,0,0-1,.12,14.51,14.51,0,0,0-1.74.36l-.19.06a.37.37,0,0,1-.18,0,.73.73,0,0,1,.29-.11c.3-.08.61-.16.91-.22l.78-.15c.14,0,.29-.06.43-.07s.35-.05.53-.05.24,0,.36,0,.23,0,.34,0a10.75,10.75,0,0,1,1.39,0,.09.09,0,0,1,.09,0A.5.5,0,0,1,29.75,17.67Z"/><path class="cls-25" d="M29.75,17.67h.72a.56.56,0,0,1,.22,0h0a2.41,2.41,0,0,1,.54.05,4.49,4.49,0,0,1,.61.09l.73.14a7,7,0,0,1,.79.2l.55.16.07,0a.46.46,0,0,1-.2,0,9.41,9.41,0,0,0-.91-.25c-.31-.07-.62-.14-.93-.19a6.5,6.5,0,0,0-.75-.12l-.57-.05c-.28,0-.56,0-.83,0A.1.1,0,0,1,29.75,17.67Z"/><path class="cls-24" d="M25,18.31s0,0,0,0a7.3,7.3,0,0,1-.79.26s0,0,0,0a.26.26,0,0,1,.11-.07l.58-.19A.39.39,0,0,1,25,18.31Z"/><path class="cls-26" d="M35,18.75s-.06,0-.08,0l-.5-.19-.06,0a1,1,0,0,1,.37.12C34.85,18.67,35,18.67,35,18.75Z"/><path class="cls-27" d="M36.19,19.27s0,0-.06,0a2.13,2.13,0,0,1-.54-.28h.06A3,3,0,0,1,36.19,19.27Z"/><path class="cls-26" d="M35.51,19a1,1,0,0,1-.48-.2A1.2,1.2,0,0,1,35.51,19Z"/><path class="cls-28" d="M36.63,19.56c-.05-.07-.14-.09-.21-.13s-.13-.05-.15-.12a.8.8,0,0,1,.23.1.52.52,0,0,0,.21.07S36.67,19.54,36.63,19.56Z"/><path class="cls-29" d="M23.31,18.91a.6.6,0,0,1-.36.16A.69.69,0,0,1,23.31,18.91Z"/><path class="cls-30" d="M22.71,19.19a.74.74,0,0,1-.32.16A.43.43,0,0,1,22.71,19.19Z"/><path class="cls-31" d="M24.11,18.59a.47.47,0,0,1-.32.12A.63.63,0,0,1,24.11,18.59Z"/><path class="cls-31" d="M23.59,18.79a.38.38,0,0,1-.28.12A.42.42,0,0,1,23.59,18.79Z"/><path class="cls-13" d="M.07,28.27H0V28a.1.1,0,0,1,0-.09A1.71,1.71,0,0,1,.07,28.27Z"/><path class="cls-32" d="M23.79,18.71a.2.2,0,0,1-.2.08A.24.24,0,0,1,23.79,18.71Z"/><path class="cls-33" d="M34.39,18.51s-.09,0-.12,0A.14.14,0,0,1,34.39,18.51Z"/><path class="cls-25" d="M34.27,18.47c-.05,0-.09,0-.12,0S34.24,18.42,34.27,18.47Z"/><path class="cls-25" d="M34.15,18.43s-.09,0-.12,0A.14.14,0,0,1,34.15,18.43Z"/><path class="cls-34" d="M22.23,19.43s-.05,0-.08.05A.07.07,0,0,1,22.23,19.43Z"/><path class="cls-35" d="M22.31,19.39s0,0-.08,0A.09.09,0,0,1,22.31,19.39Z"/><path class="cls-36" d="M22.39,19.35s0,0-.08,0A.09.09,0,0,1,22.39,19.35Z"/><path class="cls-37" d="M23,19.07s0,0-.08,0A.09.09,0,0,1,23,19.07Z"/><path class="cls-38" d="M35.59,19s-.07,0-.08,0A.09.09,0,0,1,35.59,19Z"/><path class="cls-39" d="M36.27,19.31s-.07,0-.08,0A.09.09,0,0,1,36.27,19.31Z"/><path class="cls-40" d="M22.87,19.11s0,0-.08,0A.09.09,0,0,1,22.87,19.11Z"/><path class="cls-36" d="M22.79,19.15s0,0-.08,0A.09.09,0,0,1,22.79,19.15Z"/><path class="cls-41" d="M32.18,44.34a3.9,3.9,0,0,0,.52-1.16,9.45,9.45,0,0,0,.3-1.57,8.34,8.34,0,0,0,0-1.12,2.45,2.45,0,0,0-.09-.53.49.49,0,0,0-.12-.25.22.22,0,0,0-.28-.06.76.76,0,0,0-.22.17l-.21.22a.84.84,0,0,1-.43.19,2.6,2.6,0,0,1-.4,0l-.92,0a.14.14,0,0,1-.13-.08l-.31-.5c0-.07-.09-.12-.18-.1h0s-.06,0-.06-.06v-.74s0-.07.07-.09l.52-.19a4.73,4.73,0,0,0,.74-.39,2.43,2.43,0,0,0,.49-.41,1,1,0,0,0,.29-.78v-.36a1,1,0,0,1,.32-.09,14.53,14.53,0,0,1,1.87-.28h.18a1.73,1.73,0,0,1,.58.42,8.41,8.41,0,0,1,2,2.71c.06.13.11.27.17.4s.07.2.22.06A14.14,14.14,0,0,1,39,38.25a9.43,9.43,0,0,1,2.63-1.18.8.8,0,0,1,.31,0,1.9,1.9,0,0,1,.54.34.76.76,0,0,1,.27.63,9.23,9.23,0,0,1-2.11,5.76A13.22,13.22,0,0,1,38,46.19a18.45,18.45,0,0,1-4,2.15c-.37.15-.74.29-1.12.41l-.1,0a.1.1,0,0,1-.12,0,1.73,1.73,0,0,0-.28-.26,4,4,0,0,0-.92-.47,6,6,0,0,0-1.33-.29,7.23,7.23,0,0,0-1.47,0,5.69,5.69,0,0,0-2,.48,2.28,2.28,0,0,0-.76.5.14.14,0,0,1-.18,0c-.61-.21-1.2-.44-1.78-.7a17.44,17.44,0,0,1-3.61-2.12,12.44,12.44,0,0,1-2.5-2.52,9.18,9.18,0,0,1-1.55-3.3,7.93,7.93,0,0,1-.23-1.46q0-.33,0-.66a.68.68,0,0,1,.2-.52.86.86,0,0,1,.29-.21c.1,0,.2,0,.31,0a9.57,9.57,0,0,1,3.36,1.49,12,12,0,0,1,1.27,1c.1.1.15.08.19,0a6.46,6.46,0,0,1,1.25-2.32,7.89,7.89,0,0,1,1.18-1.13.49.49,0,0,1,.22-.1,1.88,1.88,0,0,1,.41,0,14.36,14.36,0,0,1,2.07.31l.08,0a.08.08,0,0,1,.07.08v.38c0,.1,0,.2,0,.3a1.33,1.33,0,0,0,.42.71,2.61,2.61,0,0,0,.57.36c.29.13.6.22.9.32s.19,0,.19.24,0,.4,0,.6,0,.07-.08.08-.18,0-.25,0a.69.69,0,0,0-.13.2c-.08.12-.15.24-.22.36s-.07.09-.14.08a2.57,2.57,0,0,0-.48,0,3.73,3.73,0,0,1-.82,0,.93.93,0,0,1-.72-.54,1.74,1.74,0,0,0-.1-.19.4.4,0,0,0-.1-.12.14.14,0,0,0-.21,0,.56.56,0,0,0-.11.2c0,.12-.07.24-.09.36a5,5,0,0,0-.06.94,9.08,9.08,0,0,0,.21,1.94,6,6,0,0,0,.58,1.54c.06,0,.06,0,0-.11-.05-.31-.08-.63-.1-.95a3.62,3.62,0,0,1,.07-1.09,2.69,2.69,0,0,0,0-1.23c0-.15-.07-.31-.11-.46a.1.1,0,0,1,0-.09,3.35,3.35,0,0,0,.93.29,7.8,7.8,0,0,0,1,.13,9.33,9.33,0,0,0,1.67,0h.34l1.16,0a3.58,3.58,0,0,0,.79-.11,1,1,0,0,0,.36-.16c.11,0,0,.1,0,.16l-.09.79a6.07,6.07,0,0,0-.06.85,13.34,13.34,0,0,1-.12,1.79c0,.06,0,.11,0,.16S32.09,44.33,32.18,44.34Z"/><path class="cls-42" d="M41.92,37l-.46.12a9.07,9.07,0,0,0-2.52,1.18,13.63,13.63,0,0,0-1.84,1.47c-.05,0-.09.11-.15.13s-.06-.07-.07-.1a7.9,7.9,0,0,0-2-3c-.24-.23-.49-.44-.74-.64l-.06-.06c.11,0,.22,0,.34,0,.76,0,1.53-.06,2.29,0,.49,0,1,0,1.48.1a14.76,14.76,0,0,1,3,.55A3.7,3.7,0,0,1,41.92,37Z"/><path class="cls-42" d="M24.31,36.13l-.24.18A6.83,6.83,0,0,0,22,38.87a6.26,6.26,0,0,0-.34.91s0,.1-.07.13a.75.75,0,0,1-.17-.14,12.44,12.44,0,0,0-2-1.45,9,9,0,0,0-2.8-1.06l-.11,0a1.08,1.08,0,0,1,.34-.21,6.68,6.68,0,0,1,1.26-.43,15.42,15.42,0,0,1,1.8-.33,23.29,23.29,0,0,1,3.34-.18A9.05,9.05,0,0,1,24.31,36.13Z"/><path class="cls-41" d="M26.24,31.4c0,.06,0,.08-.07.1a1.82,1.82,0,0,1-.44.17,4.5,4.5,0,0,1-.81.11,7.8,7.8,0,0,1-4.77-1.38,4,4,0,0,1-.41-.31,2.09,2.09,0,0,1-.54-.68.87.87,0,0,1-.1-.31.37.37,0,0,1,.34-.43h0c.48,0,1-.07,1.46-.05a4.66,4.66,0,0,1,2.09.59,6.14,6.14,0,0,1,1.44,1.09,7.32,7.32,0,0,0,.66.59,4.32,4.32,0,0,0,.5.33A1.39,1.39,0,0,0,26.24,31.4Z"/><path class="cls-41" d="M32.66,31.48a1.49,1.49,0,0,0,.91-.38,4.56,4.56,0,0,0,.73-.79,3.53,3.53,0,0,1,.55-.61,4.45,4.45,0,0,1,1.56-.91,6.67,6.67,0,0,1,1.39-.32c.39-.06.77-.09,1.16-.12l.15,0a.45.45,0,0,1,.16,0,.33.33,0,0,1,.36.36.81.81,0,0,1-.07.35,2.09,2.09,0,0,1-.51.74,7.48,7.48,0,0,1-2.94,1.66,7.33,7.33,0,0,1-2.55.32,2.48,2.48,0,0,1-.66-.12,1.21,1.21,0,0,1-.2-.09S32.65,31.52,32.66,31.48Z"/><path class="cls-43" d="M32.43,40.63v-.11a.05.05,0,0,0,0-.05s0,0,0,0,.05,0,.06,0A.22.22,0,0,1,32.43,40.63Z"/><path class="cls-44" d="M26.35,44.22a.15.15,0,0,1,0,.11s0,.06,0,.06-.05,0-.05-.06S26.34,44.26,26.35,44.22Z"/><path class="cls-45" d="M32.18,44.34a.05.05,0,0,1-.06,0v0s0-.1,0-.14S32.13,44.31,32.18,44.34Z"/><path d="M31,41.27c-.08.13-.17.25-.25.37a.44.44,0,0,1-.14.13,2.69,2.69,0,0,1-.95.29l-.59.07a3,3,0,0,1-.95-.1,1.3,1.3,0,0,1-.53-.25.23.23,0,0,1-.1-.19c0-.24,0-.22.22-.21.66,0,1.31,0,2,0a7.14,7.14,0,0,0,1.13-.15l.09,0C31,41.2,31,41.2,31,41.27Z"/><path class="cls-46" d="M31,41.27s-.06,0-.1-.05a.21.21,0,0,1,.11,0s0,0,0,.06Z"/></g></g></svg>