<svg width="393" height="348" viewBox="0 0 393 348" fill="none" xmlns="http://www.w3.org/2000/svg">
<path d="M145.276 288.525L141.829 197.528L150.679 207.851V167.999L155.113 173.905L163.963 119.296L166.908 131.541L182.166 73.0708L186.773 81.9211L195.831 43.5412L198.394 50.4343L208.734 17.9603L205.772 61.7439L201.339 55.838L195.831 92.1049L191.501 88.312L180.192 143.838L175.273 138.989L165.938 186.202L162.491 181.231L145.276 288.525Z" fill="#1D1D1B"/>
<path d="M224.062 281.857L221.308 209.011L228.392 217.29V185.387L231.942 190.116L239.026 146.419L241.381 156.204L253.591 109.407L257.281 116.491L264.537 85.7832L266.581 91.2908L274.86 65.2943L272.487 100.349L268.954 95.6207L264.537 124.648L261.073 121.6L252.015 166.059L248.084 162.162L240.602 199.953L237.848 195.987L224.062 281.857Z" fill="#1D1D1B"/>
<path d="M178.754 347.151L174.338 230.383L185.699 243.65V192.523L191.38 200.092L202.742 130.034L206.517 145.743L226.088 70.698L231.994 82.0596L243.615 32.8204L246.923 41.6533L260.173 0L256.38 56.1843L250.699 48.5984L243.615 95.1358L238.091 90.269L223.56 161.521L217.255 155.269L205.253 215.87L200.836 209.479L178.754 347.151Z" fill="#1D1D1B"/>
<path d="M347.394 114.516H319.353V123.315L294.881 109.147V114.516H134.503V180.555L117.651 170.943V114.516H0V225.603L26.2217 210.431L52.4433 225.603V220.234H142.123V210.57L160.673 221.343L178.979 210.726L180.399 209.946V220.2H324.584L346.909 232.323V220.2H392.164V114.551L347.394 114.516ZM222.018 178.685V157.365H225.291V180.555L222.018 178.685Z" fill="black"/>
<path d="M26.5161 202.153L26.291 202.031L25.9272 202.153L7.32613 212.908V121.842H20.6621V190.67L26.1697 187.518L26.291 187.397V187.518L31.7812 190.67V121.842H45.1345V212.908L26.5161 202.153Z" fill="#BCBBD2"/>
<path d="M89.9746 135.178V212.908H52.1489V121.842H89.9746V135.178ZM76.6213 199.572V135.178H65.5022V199.572H76.6213Z" fill="#BCBBD2"/>
<path d="M134.797 189.146V212.908H96.989V121.842H110.342V199.572H121.461V181.543L134.797 189.146Z" fill="#BCBBD2"/>
<path d="M179.637 121.842V202.031L175.429 204.37L160.673 212.908L143.942 203.192L141.829 202.031V121.842H155.148V195.121L160.638 198.394L166.267 195.121V121.842H179.637Z" fill="#BCBBD2"/>
<path d="M225.534 121.842V150.056H212.181V135.178H201.062V153.676L214.64 161.521V176.035L201.062 168.189V199.572H212.181V181.543L225.534 189.146V212.908H187.726V162.578H191.189L187.726 160.586L184.262 158.594V144.081L187.726 145.951V121.842H225.534Z" fill="#BCBBD2"/>
<path d="M257.021 121.842H270.357V159.772L263.931 163.392L270.357 167.15V212.908H257.021V176.97H261.125L260.883 176.866L257.021 174.632L245.902 168.189V212.908H232.548V121.842H257.021ZM257.021 159.945V135.178H245.902V153.554L257.021 159.945Z" fill="#BCBBD2"/>
<path d="M295.297 170.077L291.833 168.085V212.908H278.497L278.618 199.053V162.924H282.584L278.497 160.586V160.465L275.033 158.473V143.959L278.497 145.83V121.842H291.833V153.554L295.297 155.546V170.077Z" fill="#BCBBD2"/>
<path d="M340.016 121.842V219.836L326.68 212.908V152.862H330.767L315.561 144.081V212.908H302.207V121.842L326.61 136.096V121.929L340.016 121.842Z" fill="#BCBBD2"/>
<path d="M384.856 212.908H347.047V121.842H360.383V199.572H371.502V121.842H384.856V212.908V212.908Z" fill="#BCBBD2"/>
<path d="M384.856 178.113V121.842H371.502V174.476C376.023 175.637 380.456 176.866 384.856 178.113Z" fill="#EAEAEA"/>
<path d="M360.383 171.705V121.842H347.047V168.605C351.55 169.644 356.053 170.735 360.383 171.705Z" fill="#EAEAEA"/>
<path d="M45.1345 168.674V121.912H31.7812V171.774C36.1977 170.735 40.6314 169.644 45.1345 168.674Z" fill="#EAEAEA"/>
<path d="M20.6621 174.476V121.842H7.32613V178.113C11.7079 176.866 16.1591 175.637 20.6621 174.476Z" fill="#EAEAEA"/>
<path d="M65.5022 164.656V135.213H76.6213V162.751C81.0377 162.041 85.4888 161.348 89.9746 160.707V121.842H52.1489V167.271C56.5653 166.301 61.0164 165.539 65.5022 164.656Z" fill="#EAEAEA"/>
<path d="M110.342 158.057V121.842H96.989V159.703C101.411 159.114 105.862 158.565 110.342 158.057Z" fill="#EAEAEA"/>
<path d="M155.148 154.334V121.842H141.794V155.148C146.24 154.836 150.691 154.565 155.148 154.334Z" fill="#EAEAEA"/>
<path d="M179.637 153.416V121.842H166.301V153.814C170.735 153.641 175.169 153.52 179.637 153.416Z" fill="#EAEAEA"/>
<path d="M196.091 153.243H201.062V135.178H212.181V150.056H225.534V121.842H187.726V145.951L184.262 144.081V153.416C188.211 153.3 192.154 153.243 196.091 153.243Z" fill="#EAEAEA"/>
<path d="M248.413 155.009L245.902 153.554V135.178H257.021V155.65C261.489 156.014 265.94 156.395 270.357 156.828V121.842H232.548V154.091C237.883 154.357 243.171 154.663 248.413 155.009Z" fill="#EAEAEA"/>
<path d="M295.297 159.72V155.546L291.833 153.554V121.842H278.497V145.83L275.033 143.959V157.313C281.868 158.028 288.623 158.831 295.297 159.72Z" fill="#EAEAEA"/>
<path d="M315.56 162.716V144.081L330.767 152.862H326.61V164.656C331.096 165.47 335.547 166.301 339.946 167.202V121.842H326.61V136.096L302.138 121.929V160.759C306.693 161.313 311.144 162.075 315.56 162.716Z" fill="#EAEAEA"/>
</svg>
